<?xml version="1.0" encoding="UTF-8"?>
<svg width="1200pt" height="1200pt" version="1.1" viewBox="0 0 1200 1200" xmlns="http://www.w3.org/2000/svg">
 <path d="m521.96 815.5c-17.188 17.07-27.84 40.742-27.84 66.891v2.3164c-53.699 10.898-94.117 58.375-94.117 115.29 0 64.977 52.672 117.65 117.65 117.65 56.914 0 104.39-40.418 115.29-94.117h334.12c10.902 53.699 58.379 94.117 115.29 94.117 64.977 0 117.65-52.672 117.65-117.65 0-56.918-40.418-104.39-94.117-115.29v-2.3164c0-52.062-41.992-94.156-93.91-94.156h-423.95c-8.0898 0-15.945 1.0273-23.434 2.9609l-470.04-451.23c-46.203-44.352-44.086-112.56 4.8594-154l60.363-54.258c4.8359-4.3438 5.5-11.711 1.082-16.93l-15.062-17.789c-4.2344-5.0078-11.586-5.5469-16.426-1.1953l-60.363 54.254c-70.254 59.473-73.375 160.19-7.043 223.86zm560.39 255.09c-38.984 0-70.586-31.605-70.586-70.59s31.602-70.59 70.586-70.59c38.984 0 70.59 31.605 70.59 70.59s-31.605 70.59-70.59 70.59zm-564.7 0c-38.984 0-70.59-31.605-70.59-70.59s31.605-70.59 70.59-70.59c38.984 0 70.586 31.605 70.586 70.59s-31.602 70.59-70.586 70.59zm458.91-329.41c6.4531 0 11.68-5.0742 11.68-11.656v-58.93c0-12.996-10.535-23.531-23.527-23.531h-329.41c-12.992 0-23.527 10.535-23.527 23.531v58.93c0 6.4375 5.3203 11.656 11.68 11.656z" fill="#102818" fill-rule="evenodd"/>
</svg>
